<?xml version="1.0" encoding="UTF-8" standalone="no"?>
<!-- Created with Inkscape (http://www.inkscape.org/) -->
<svg
   xmlns:dc="http://purl.org/dc/elements/1.1/"
   xmlns:cc="http://web.resource.org/cc/"
   xmlns:rdf="http://www.w3.org/1999/02/22-rdf-syntax-ns#"
   xmlns:svg="http://www.w3.org/2000/svg"
   xmlns="http://www.w3.org/2000/svg"
   xmlns:sodipodi="http://sodipodi.sourceforge.net/DTD/sodipodi-0.dtd"
   xmlns:inkscape="http://www.inkscape.org/namespaces/inkscape"
   id="svg2821"
   sodipodi:version="0.32"
   inkscape:version="0.44.1"
   width="99.877052"
   height="255"
   version="1.0"
   sodipodi:docbase="J:\DATINB\NEWDL\wiki"
   sodipodi:docname="Oscar_mini_icon.svg">
  <metadata
     id="metadata2826">
    <rdf:RDF>
      <cc:Work
         rdf:about="">
        <dc:format>image/svg+xml</dc:format>
        <dc:type
           rdf:resource="http://purl.org/dc/dcmitype/StillImage" />
      </cc:Work>
    </rdf:RDF>
  </metadata>
  <defs
     id="defs2824" />
  <sodipodi:namedview
     inkscape:window-height="721"
     inkscape:window-width="1024"
     inkscape:pageshadow="2"
     inkscape:pageopacity="0.0"
     guidetolerance="10.0"
     gridtolerance="10.0"
     objecttolerance="10.0"
     borderopacity="1.0"
     bordercolor="#666666"
     pagecolor="#ffffff"
     id="base"
     inkscape:zoom="1.4075067"
     inkscape:cx="72"
     inkscape:cy="158.53836"
     inkscape:window-x="1071"
     inkscape:window-y="120"
     inkscape:current-layer="svg2821"
     height="255px"
     width="99.877052px" />
  <path
     style="fill:#f0c60b;fill-opacity:1"
     d="M 2.2993819,243.56494 C -1.1026591,241.60427 -0.9385111,241.52608 4.2015339,240.00521 L 8.0440949,239.03157 L 8.2617039,226.55609 C 8.2617039,226.55609 11.280223,225.67709 12.312216,225.53163 C 14.427728,225.23345 19.775685,224.14614 24.36752,223.70487 C 28.959355,223.26362 33.61375,223.36451 33.61375,223.36451 C 35.705809,217.55816 35.821325,205.39069 32.708355,191.27168 C 31.382336,185.25747 31.024339,182.15035 31.881607,170.34849 C 32.785302,157.90746 32.369435,156.25117 30.366705,149.83556 C 28.541293,143.98797 27.847485,140.74011 27.857558,129.73289 C 27.864165,122.51234 28.704973,114.4525 29.305577,111.82215 C 30.637862,105.98738 29.322662,102.61956 24.601519,99.776463 C 19.225421,96.538956 17.369413,91.741154 17.621345,81.732632 C 17.78083,75.396835 17.297536,71.093691 15.794836,65.469737 C 13.38634,56.455791 13.82,52.944489 17.616516,50.719769 C 19.063909,49.871611 24.769691,47.179405 30.296033,44.737088 C 37.409114,41.593526 40.624681,39.697365 41.305143,38.245219 C 41.992829,36.77765 42.203737,33.867969 40.57434,28.286206 C 36.592772,14.6467 40.081451,9.2361905 49.839332,9.2361905 C 59.597214,9.2361905 63.429892,14.937624 59.104325,28.286206 C 57.307519,33.831098 57.685835,36.77765 58.373522,38.245219 C 59.053984,39.697365 62.269551,41.593526 69.382633,44.737088 C 74.908976,47.179405 80.614757,49.871611 82.062147,50.719769 C 85.858667,52.944489 86.292317,56.455791 83.883817,65.469737 C 82.381127,71.093691 81.897837,75.396835 82.057317,81.732632 C 82.309247,91.741154 80.453237,96.538956 75.077146,99.776463 C 70.356003,102.61956 69.040803,105.98738 70.37309,111.82215 C 70.973696,114.4525 71.642498,122.36687 71.649112,129.58743 C 71.659183,140.59465 71.13737,143.98797 69.31196,149.83556 C 67.30923,156.25117 66.864688,157.90897 67.797062,170.34849 C 68.684958,182.19476 68.501242,184.26188 66.769075,191.68194 C 64.685501,200.60734 63.581512,219.60387 66.780486,223.03797 C 66.780486,223.03797 70.720195,223.2637 75.311719,223.70493 C 79.903235,224.14616 85.331807,224.95806 87.366447,225.53163 C 88.914437,225.96802 91.244957,226.70155 91.244957,226.70155 L 91.634577,239.03157 L 95.477127,240.00521 C 100.78918,241.52608 101.12532,241.74973 97.379277,243.56494 C 95.489707,244.48057 95.782867,244.4595 95.782867,244.4595 C 95.782867,244.4595 3.1991929,244.08353 2.2993819,243.56494 z "
     id="path5513"
     sodipodi:nodetypes="cccccsssssssssssssssssssssssssssssccccscs" />
</svg>
