<?xml version="1.0" encoding="UTF-8" standalone="no"?>
<svg
   xmlns:dc="http://purl.org/dc/elements/1.1/"
   xmlns:cc="http://web.resource.org/cc/"
   xmlns:rdf="http://www.w3.org/1999/02/22-rdf-syntax-ns#"
   xmlns:svg="http://www.w3.org/2000/svg"
   xmlns="http://www.w3.org/2000/svg"
   xmlns:sodipodi="http://inkscape.sourceforge.net/DTD/sodipodi-0.dtd"
   xmlns:inkscape="http://www.inkscape.org/namespaces/inkscape"
   width="605.00000"
   height="755.00000"
   id="svg2197"
   sodipodi:version="0.32"
   inkscape:version="0.32"
   sodipodi:docname="Südtirol.svg"
   sodipodi:docbase="/home/alex/Wappen"
   inkscape:label="Schild"
   version="1.0"
   x="0.0000000"
   y="0.0000000">
  <metadata
     id="metadata2304">
    <rdf:RDF>
      <cc:Work
         rdf:about="">
        <dc:format>image/svg+xml</dc:format>
        <dc:type
           rdf:resource="http://purl.org/dc/dcmitype/StillImage" />
      </cc:Work>
    </rdf:RDF>
  </metadata>
  <sodipodi:namedview
     inkscape:window-height="885"
     inkscape:window-width="1274"
     inkscape:pageshadow="2"
     inkscape:pageopacity="0.0"
     borderopacity="1.0"
     bordercolor="#666666"
     pagecolor="#ffffff"
     id="base"
     inkscape:zoom="0.66683483"
     inkscape:cx="461.18078"
     inkscape:cy="309.41930"
     inkscape:window-x="0"
     inkscape:window-y="24"
     inkscape:current-layer="layer6" />
  <defs
     id="defs2199">
    <marker
       id="ArrowEnd"
       viewBox="0 0 10 10"
       refX="0.0000000"
       refY="5.0000000"
       markerUnits="strokeWidth"
       markerWidth="4.0000000"
       markerHeight="3.0000000"
       orient="auto">
      <path
         d="M 0.0000000,0.0000000 L 10.000000,5.0000000 L 0.0000000,10.000000 L 0.0000000,0.0000000 z "
         id="path2202" />
    </marker>
    <marker
       id="ArrowStart"
       viewBox="0 0 10 10"
       refX="10.000000"
       refY="5.0000000"
       markerUnits="strokeWidth"
       markerWidth="4.0000000"
       markerHeight="3.0000000"
       orient="auto">
      <path
         d="M 10.000000,0.0000000 L 0.0000000,5.0000000 L 10.000000,10.000000 L 10.000000,0.0000000 z "
         id="path2205" />
    </marker>
  </defs>
  <g
     inkscape:groupmode="layer"
     id="layer4"
     inkscape:label="Schild"
     style="display:inline" />
  <g
     inkscape:groupmode="layer"
     id="layer5"
     inkscape:label="Figur" />
  <g
     inkscape:groupmode="layer"
     id="layer6"
     inkscape:label="Rand"
     style="display:inline">
    <g
       id="g2429"
       inkscape:export-filename="/home/alex/Wappen/Südtirol.png"
       inkscape:export-xdpi="59.500000"
       inkscape:export-ydpi="59.500000">
      <path
         sodipodi:nodetypes="ccccc"
         style="fill:#ffffff;fill-opacity:1.0000000;fill-rule:evenodd;stroke:none;stroke-opacity:1.0000000;display:inline"
         d="M 2.5000000,2.5004000 L 602.49960,2.5004000 L 602.49960,322.50000 C 602.49960,488.18400 520.49960,674.50000 302.49960,752.50000 C 84.499600,674.50000 2.5000000,488.18700 2.5000000,322.50000"
         id="path2209" />
      <g
         id="g2365">
        <path
           id="path2213"
           d="M 245.49960,501.42600 C 241.99960,509.92600 238.74960,528.42600 236.49960,537.42600 C 234.49960,545.42600 236.24960,555.42600 227.99960,555.42600 C 222.37460,555.42600 222.74960,547.92600 221.49960,542.42600 C 218.99960,531.67600 219.37460,528.42600 208.74960,524.17600 C 203.41360,522.04300 193.34760,528.82400 195.74960,534.05100 C 198.62460,540.30100 196.74960,535.92600 200.49960,539.92600 C 207.24960,547.17600 211.37460,551.92600 214.49960,561.42600 L 212.74960,565.80100 C 209.62460,565.42600 204.62460,565.30100 199.49960,564.92600 C 195.51160,564.63700 189.49960,565.05100 185.24960,566.30100 C 177.81560,568.48400 181.87460,569.92600 181.87460,577.67600 C 181.87460,581.05100 182.87460,583.55100 186.24960,583.55100 C 199.74960,583.55100 203.13260,576.66800 216.49960,576.92600 C 215.99960,586.42600 209.74960,592.92600 207.99960,596.42600 C 203.62460,605.30100 207.49960,611.55100 208.12460,612.05100 C 210.36660,613.84400 211.87460,615.55100 214.74960,615.55100 C 221.49960,615.55100 221.87460,612.80100 223.99960,606.42600 C 227.99960,594.42600 229.99960,578.92600 242.62460,578.92600 C 247.99960,578.92600 251.77660,580.35100 256.49960,582.92600 C 267.49960,588.92600 265.24960,592.80100 274.74960,592.80100 C 279.12460,592.80100 280.62460,588.80100 280.62460,584.42600 C 280.62460,574.42600 268.37460,570.42600 258.37460,570.42600 C 252.87460,570.42600 242.99960,567.92600 242.99960,564.92600 C 242.99960,556.68400 244.99960,557.42600 250.49960,548.92600 C 255.71860,540.85900 262.49960,510.05100 262.49960,506.92600 C 258.24960,506.67600 249.49960,502.67600 245.49960,501.42600"
           style="fill:#f9f010;fill-rule:evenodd;stroke:#000000;stroke-opacity:1.0000000" />
        <path
           id="path2217"
           d="M 206.99960,526.26900 C 206.99960,527.26900 206.99960,527.82800 206.99960,528.82800 C 206.99960,532.92200 203.12460,537.04700 197.87460,536.17200 C 195.40960,535.76200 191.87460,533.17200 190.49960,540.79700 C 188.65560,539.42200 188.37460,534.60900 188.37460,532.29700 C 188.37460,526.70300 195.41760,522.00400 200.99960,522.42200 C 205.99960,522.79700 206.99960,524.54700 206.99960,526.26600"
           style="fill:#f9f010;fill-rule:evenodd;stroke:#000000;stroke-opacity:1.0000000" />
        <path
           id="path2221"
           d="M 176.24960,578.23800 C 176.24960,582.73800 179.24960,592.04700 185.74960,594.04700 C 185.24960,592.42200 184.74960,589.54700 184.74960,587.92200 C 184.74960,583.23400 189.24960,582.85900 189.24960,578.17200 C 189.24960,575.45300 188.09760,574.01900 186.99960,571.54700 C 186.59760,570.64400 184.09760,569.39400 183.24960,569.42200 C 181.62460,569.48000 180.78060,570.19900 179.37460,571.04700 C 176.72260,572.64100 176.24960,575.17200 176.24960,578.23000"
           style="fill:#f9f010;fill-rule:evenodd;stroke:#000000;stroke-opacity:1.0000000" />
        <path
           id="path2225"
           d="M 207.62460,604.67600 C 206.34760,605.07800 203.64760,609.04300 203.37460,610.51900 C 202.74960,613.92200 203.22260,617.20300 204.12460,618.79700 C 206.90160,623.57400 213.24960,625.42200 218.99960,622.79700 C 213.87460,619.42200 219.12460,614.26900 219.12460,612.67200 C 219.12460,610.42200 217.12460,609.17200 214.87460,607.54700 C 212.17960,605.60100 212.74960,603.92200 207.62460,604.67200"
           style="fill:#f9f010;fill-rule:evenodd;stroke:#000000;stroke-opacity:1.0000000" />
        <path
           id="path2229"
           d="M 276.49960,580.42600 C 272.94060,580.42600 270.24960,587.35900 270.24960,590.92600 C 270.24960,593.70300 276.62460,594.80100 274.49960,606.55100 C 278.49960,604.80100 288.24960,596.17600 282.49960,584.67600 C 280.97260,581.61700 278.34760,580.42600 276.49960,580.42600"
           style="fill:#f9f010;fill-rule:evenodd;stroke:#000000;stroke-opacity:1.0000000" />
        <path
           id="path2233"
           d="M 358.81960,503.42600 C 362.31960,511.92600 365.56960,530.42600 367.81960,539.42600 C 369.81960,547.42600 368.06960,557.42600 376.31960,557.42600 C 381.94460,557.42600 381.56960,549.92600 382.81960,544.42600 C 385.31960,533.67600 384.94460,530.42600 395.56960,526.17600 C 400.90560,524.04300 410.97260,530.82400 408.56960,536.05100 C 405.69460,542.30100 407.56960,537.92600 403.81960,541.92600 C 397.06960,549.17600 392.94460,553.92600 389.81960,563.42600 L 391.56960,567.80100 C 394.69460,567.42600 399.69460,567.30100 404.81960,566.92600 C 408.80860,566.63700 414.81960,567.05100 419.06960,568.30100 C 426.50360,570.48400 422.44460,571.92600 422.44460,579.67600 C 422.44460,583.05100 421.44460,585.55100 418.06960,585.55100 C 404.56960,585.55100 401.18760,578.66800 387.81960,578.92600 C 388.31960,588.42600 394.56960,594.92600 396.31960,598.42600 C 400.69460,607.30100 396.81960,613.55100 396.19460,614.05100 C 393.95260,615.84400 392.44460,617.55100 389.56960,617.55100 C 382.81960,617.55100 382.44460,614.80100 380.31960,608.42600 C 376.31960,596.42600 374.31960,580.92600 361.69460,580.92600 C 356.31960,580.92600 352.54260,582.35100 347.81960,584.92600 C 336.81960,590.92600 339.06960,594.80100 329.56960,594.80100 C 325.19460,594.80100 323.69460,590.80100 323.69460,586.42600 C 323.69460,576.42600 335.94460,572.42600 345.94460,572.42600 C 351.44460,572.42600 361.31960,569.92600 361.31960,566.92600 C 361.31960,558.68400 359.31960,559.42600 353.81960,550.92600 C 348.60160,542.85900 341.81960,512.05100 341.81960,508.92600 C 346.06960,508.67600 354.81960,504.67600 358.81960,503.42600"
           style="fill:#f9f010;fill-rule:evenodd;stroke:#000000;stroke-opacity:1.0000000" />
        <path
           id="path2237"
           d="M 397.31960,528.26900 C 397.31960,529.26900 397.31960,529.82800 397.31960,530.82800 C 397.31960,534.92200 401.19460,539.04700 406.44460,538.17200 C 408.90960,537.76200 412.44460,535.17200 413.81960,542.79700 C 415.66360,541.42200 415.94460,536.60900 415.94460,534.29700 C 415.94460,528.70300 408.89760,524.00400 403.31960,524.42200 C 398.31960,524.79700 397.31960,526.54700 397.31960,528.26600"
           style="fill:#f9f010;fill-rule:evenodd;stroke:#000000;stroke-opacity:1.0000000" />
        <path
           id="path2241"
           d="M 428.06960,580.23800 C 428.06960,584.73800 425.06960,594.04700 418.56960,596.04700 C 419.06960,594.42200 419.56960,591.54700 419.56960,589.92200 C 419.56960,585.23400 415.06960,584.85900 415.06960,580.17200 C 415.06960,577.45300 416.22260,576.01900 417.31960,573.54700 C 417.72260,572.64400 420.22260,571.39400 421.06960,571.42200 C 422.69460,571.48000 423.53860,572.19900 424.94460,573.04700 C 427.59760,574.64100 428.06960,577.17200 428.06960,580.23000"
           style="fill:#f9f010;fill-rule:evenodd;stroke:#000000;stroke-opacity:1.0000000" />
        <path
           id="path2245"
           d="M 396.69460,606.67600 C 397.97260,607.07800 400.67160,611.04300 400.94460,612.51900 C 401.56960,615.92200 401.09760,619.20300 400.19460,620.79700 C 397.41760,625.57400 391.06960,627.42200 385.31960,624.79700 C 390.44460,621.42200 385.19460,616.26900 385.19460,614.67200 C 385.19460,612.42200 387.19460,611.17200 389.44460,609.54700 C 392.14060,607.60100 391.56960,605.92200 396.69460,606.67200"
           style="fill:#f9f010;fill-rule:evenodd;stroke:#000000;stroke-opacity:1.0000000" />
        <path
           id="path2249"
           d="M 327.81960,582.42600 C 331.38260,582.42600 334.06960,589.35900 334.06960,592.92600 C 334.06960,595.70300 327.69460,596.80100 329.81960,608.55100 C 325.81960,606.80100 316.06960,598.17600 321.81960,586.67600 C 323.34760,583.61700 325.97260,582.42600 327.81960,582.42600"
           style="fill:#f9f010;fill-rule:evenodd;stroke:#000000;stroke-opacity:1.0000000" />
        <path
           style="fill:#ff0000;fill-rule:evenodd;stroke:#000000;stroke-opacity:1.0000000"
           d="M 70.500000,23.000000 C 51.500000,21.000000 51.499999,41.500000 41.500000,41.500000 C 36.250000,41.500000 35.750001,34.375000 31.000000,32.500000 C 29.500000,33.750000 25.500001,35.000000 25.500000,41.000000 C 25.500000,53.000000 28.499999,64.499997 40.500000,64.500000 C 53.125000,64.500000 54.374999,45.500000 67.000000,45.500000 C 74.875000,45.500000 75.874999,54.500000 79.500000,61.500000 C 84.999500,72.000000 93.250002,75.874997 105.00000,77.500000 C 101.87500,86.999600 94.000002,90.000001 84.500000,93.000000 C 74.750500,96.000000 69.249999,99.000001 59.000000,99.000000 C 57.375000,99.000000 56.624999,97.500001 55.000000,97.500000 C 49.750000,97.500000 48.499999,104.00000 48.500000,109.25000 C 48.500000,117.12500 54.374999,124.00000 62.250000,124.00000 C 70.375000,124.00000 72.374999,114.00000 80.500000,114.00000 C 82.249500,114.00000 84.000002,115.25000 84.000000,117.00000 C 84.000000,122.86000 68.499999,147.24999 62.500000,161.50000 C 58.500000,171.00000 51.081999,201.76199 49.000000,220.00000 C 47.000000,237.50000 47.499999,247.49999 47.500000,247.50000 C 47.500000,258.12500 44.374999,266.37499 36.000000,273.00000 C 31.875000,276.25000 25.500001,276.12499 25.500000,281.50000 C 25.500000,288.12500 31.374999,290.99999 38.000000,291.00000 C 47.250000,291.00000 57.105499,273.68799 59.500000,262.00000 C 61.312500,253.18400 62.968699,241.55500 66.250000,237.50000 C 66.750000,240.37500 65.206999,244.68000 69.375000,246.00000 C 73.503900,247.30500 75.749999,240.25400 76.500000,238.50000 C 65.000000,320.50000 74.812499,319.78100 68.500000,354.50000 C 63.500000,382.00000 64.820299,382.77000 58.000000,393.00000 C 52.304700,401.54300 47.499952,397.35500 47.031250,403.00000 C 47.007750,403.30100 47.000000,403.64099 47.000000,404.00000 C 47.000000,408.62500 53.625000,414.49999 58.250000,414.50000 C 65.902300,414.50000 70.613300,409.59400 73.750000,403.00000 L 73.812500,403.00000 C 75.699200,399.04300 77.015602,394.44974 78.062500,389.96875 C 87.695200,348.75775 89.500250,326.89900 94.031250,320.50000 C 93.781250,323.75000 93.941250,328.75400 98.656250,328.87500 C 103.40625,329.00000 105.03125,320.87500 105.03125,320.87500 C 105.03125,320.87500 104.84675,362.35900 104.46875,403.00000 L 104.43750,403.00000 C 104.10150,438.81300 103.61300,473.97299 103.00000,479.50000 C 102.00000,488.50000 102.21100,494.67199 90.000000,498.00000 C 84.500000,499.50000 81.000000,504.24999 81.000000,506.50000 C 81.000000,513.00000 90.054997,516.32802 96.500000,515.50000 C 112.00000,513.50000 116.50000,495.12499 118.50000,480.50000 L 123.87500,403.00000 L 123.93750,403.00000 L 127.15625,356.37500 C 127.15625,356.37500 126.53525,371.98400 133.53125,372.50000 C 140.28125,373.00000 141.80825,367.48100 142.03125,363.50000 C 142.03125,363.50000 142.18375,379.89900 142.34375,403.00000 L 142.28125,403.00000 C 142.66425,457.60500 143.21500,549.70702 142.50000,551.50000 C 141.50000,554.00000 143.50000,561.00002 133.50000,565.00000 C 126.85900,567.65600 126.00000,564.25002 126.00000,571.50000 C 126.00000,576.75000 129.75400,581.16802 135.00000,581.00000 C 150.50000,580.50000 157.20700,565.67202 159.00000,544.50000 C 160.73000,524.09000 161.07400,447.96500 161.12500,403.00000 L 161.18750,403.00000 C 161.21050,382.97300 161.15625,369.12500 161.15625,369.12500 C 161.15625,369.12500 162.28125,381.75000 169.03125,381.87500 C 175.53125,381.99200 177.35125,371.87500 177.53125,371.87500 C 177.53125,373.95700 177.72275,386.45700 177.96875,403.00000 L 177.93750,403.00000 C 178.52750,442.16000 179.50000,503.99999 179.50000,504.00000 C 180.00000,509.00000 169.50000,505.62502 169.50000,516.00000 C 169.50000,521.12500 174.37500,524.50002 179.50000,524.50000 C 189.00000,524.50000 196.50000,505.49999 196.50000,496.00000 L 196.87500,403.00000 L 196.90625,403.00000 L 197.03125,374.00000 C 197.03125,374.00000 197.53124,386.37500 205.03125,386.37500 C 211.05525,386.37500 211.03124,380.50000 212.53125,375.50000 C 212.71125,375.50800 212.82401,389.37900 212.62500,403.00000 L 212.59375,403.00000 C 212.40675,415.50000 211.95300,427.80499 211.00000,429.00000 C 207.04700,433.94200 204.50000,428.12499 204.50000,434.50000 C 204.50000,438.62500 207.87500,441.99999 212.00000,442.00000 C 221.25000,442.00000 223.62500,433.99999 225.50000,425.00000 C 225.44900,420.81700 225.84375,411.97700 226.34375,403.00000 L 226.37500,403.00000 C 227.09700,389.98100 228.03125,376.62500 228.03125,376.62500 C 228.03125,376.62500 228.78125,388.87500 235.15625,389.12500 C 239.91025,389.30900 241.08225,383.19100 241.28125,378.37500 C 245.08625,376.94100 247.83175,382.24201 249.09375,388.75000 L 248.84375,388.96875 C 249.33975,392.94175 249.48001,397.76199 249.37500,403.00000 C 249.03500,419.51900 246.19101,440.31600 244.00000,452.50000 C 241.33600,467.28500 234.27701,504.38997 236.00000,513.00000 C 237.50000,520.50000 253.75001,523.49997 258.00000,523.50000 C 264.25000,523.50000 265.75001,514.37500 267.50000,508.50000 C 270.00000,500.50000 265.75001,493.50000 272.50000,488.50000 C 278.50000,489.00000 278.28901,490.71100 278.50000,492.50000 C 279.50000,501.00000 282.48001,520.26897 283.50000,531.50000 C 286.00000,559.00000 288.00001,561.49997 288.50000,576.00000 C 288.97200,589.74600 288.00001,599.74997 288.00000,613.50000 C 288.00000,626.75000 277.50001,641.49997 269.50000,641.50000 C 256.75000,641.50000 251.75001,621.49997 239.00000,621.50000 C 224.12500,621.50000 218.62501,626.37497 208.00000,637.00000 C 200.12500,644.87500 203.00001,646.99997 190.00000,667.00000 C 215.50000,667.50000 213.18701,640.13297 228.00000,641.00000 C 245.00000,642.00000 243.50001,656.49997 263.00000,657.00000 C 281.00400,657.46100 289.50001,646.49997 292.50000,641.00000 C 292.50000,641.38700 292.75424,654.07075 292.78125,659.46875 C 288.50425,665.53575 278.76101,667.50000 269.75000,667.50000 C 264.75000,667.50000 260.00001,662.50000 255.00000,662.50000 C 240.25000,662.50000 231.75001,675.75000 229.50000,690.50000 C 243.00000,686.00000 239.50001,677.50000 257.00000,677.00000 C 261.12500,676.88300 264.87501,685.00000 269.00000,685.00000 C 274.75000,685.00000 275.25001,677.00000 281.00000,677.00000 C 286.32400,677.00000 288.28475,681.42175 292.96875,681.96875 C 292.96875,681.96875 282.67501,695.32503 277.00000,701.00000 C 271.37500,706.62500 269.50001,710.50003 269.00000,718.50000 C 279.00000,720.00000 280.50001,713.50003 287.00000,713.50000 C 290.70700,713.50000 293.01925,716.15225 295.40625,718.65625 C 295.99225,721.09025 296.95374,723.00000 298.96875,723.00000 C 299.68775,723.00000 305.21875,720.55500 305.84375,720.37500 C 306.46875,720.55500 310.10851,717.30500 310.68750,714.87500 C 315.29650,713.07100 313.85950,717.81247 317.56250,717.81250 C 324.06250,717.81250 322.96875,720.00000 332.96875,718.50000 C 332.46875,710.50000 330.59375,706.62500 324.96875,701.00000 C 319.29275,695.32500 309.03124,681.96878 309.03125,681.96875 C 313.71525,681.41875 314.68000,681.00003 320.00000,681.00000 C 325.75000,681.00000 327.34375,691.31248 333.09375,691.31250 C 337.21875,691.31250 344.06551,686.82051 348.18750,686.93750 C 365.68750,687.43750 361.40626,697.53126 374.90625,702.03125 C 372.65625,687.28125 365.18749,673.74999 350.43750,673.75000 C 345.43750,673.75000 338.31249,676.00000 333.31250,676.00000 C 324.30150,676.00000 313.46449,665.50450 309.18750,659.43750 C 309.21450,654.03950 309.46875,641.38700 309.46875,641.00000 C 312.46875,646.50000 320.15624,664.83598 338.15625,664.37500 C 357.65625,663.87500 355.87499,653.90727 372.87500,652.90625 C 387.69200,652.03125 383.43750,682.24999 408.93750,681.75000 C 395.93750,661.75000 402.46874,658.96876 394.59375,651.09375 C 383.96875,640.46875 380.40625,634.18752 365.53125,634.18750 C 352.78125,634.18750 345.74999,647.00003 333.00000,647.00000 C 325.00000,647.00000 313.96875,626.75003 313.96875,613.50000 C 313.96875,599.75000 312.99575,589.74203 313.46875,576.00000 C 313.96875,561.50000 315.96875,559.00003 318.46875,531.50000 C 319.49175,520.26600 322.46875,501.00000 323.46875,492.50000 C 323.68375,490.70700 323.46875,489.00000 329.46875,488.50000 C 336.21875,493.50000 331.96875,500.50000 334.46875,508.50000 C 336.21875,514.37500 337.71875,523.50003 343.96875,523.50000 C 348.21875,523.50000 364.46875,520.50003 365.96875,513.00000 C 367.68775,504.38700 360.62875,467.28100 357.96875,452.50000 C 356.14475,442.38700 355.26949,420.87100 355.68750,403.00000 L 355.71875,403.00000 C 355.90175,395.23100 356.34326,388.15299 357.03125,383.00000 C 357.03125,383.00000 360.42599,376.74999 364.75000,378.37500 C 364.95300,383.19600 366.12499,389.30899 370.87500,389.12500 C 377.25000,388.87500 377.99999,376.62499 378.00000,376.62500 C 378.00000,376.62500 378.90200,389.97699 379.62500,403.00000 C 380.12500,411.98800 380.51875,420.81699 380.46875,425.00000 C 382.34375,434.00000 384.71875,441.99999 393.96875,442.00000 C 398.09375,442.00000 401.46875,438.62499 401.46875,434.50000 C 401.46875,428.12500 398.91775,433.93799 394.96875,429.00000 C 394.01175,427.80500 393.55899,415.50000 393.37500,403.00000 C 393.17200,389.37500 393.28974,375.50399 393.46875,375.50000 C 394.96875,380.50000 394.94974,386.37499 400.96875,386.37500 C 408.46875,386.37500 408.96874,373.99999 408.96875,374.00000 L 409.09375,403.00000 L 409.46875,496.00000 C 409.46875,505.50000 416.96876,524.50002 426.46875,524.50000 C 431.59375,524.50000 436.46876,521.12502 436.46875,516.00000 C 436.46875,505.62500 425.96876,508.99999 426.46875,504.00000 C 426.46875,504.00000 427.47650,442.16800 428.06250,403.00000 C 428.30850,386.44900 428.46876,373.95299 428.46875,371.87500 C 428.65175,371.87500 430.47176,381.99199 436.96875,381.87500 C 443.71875,381.75000 444.84376,369.12499 444.84375,369.12500 C 444.84375,369.12500 444.81975,382.98099 444.84375,403.00000 C 444.89875,447.96900 445.24176,524.09402 446.96875,544.50000 C 448.76475,565.67600 455.46876,580.50002 470.96875,581.00000 C 476.21875,581.16800 479.96876,576.75002 479.96875,571.50000 C 479.96875,564.25000 479.10476,567.65302 472.46875,565.00000 C 462.46875,561.00000 464.46876,554.00002 463.46875,551.50000 C 462.74975,549.70700 463.30450,457.60500 463.68750,403.00000 C 463.85150,379.89500 463.96876,363.49999 463.96875,363.50000 C 464.19475,367.48500 465.71876,372.99999 472.46875,372.50000 C 479.46475,371.98100 478.84376,356.37499 478.84375,356.37500 L 482.09375,403.00000 L 487.46875,480.50000 C 489.46875,495.12500 493.96875,513.50002 509.46875,515.50000 C 515.91775,516.32800 524.96875,512.99999 524.96875,506.50000 C 524.96875,504.25000 521.46875,499.49999 515.96875,498.00000 C 503.75375,494.66800 503.96875,488.49999 502.96875,479.50000 C 502.35475,473.95700 501.86325,438.76200 501.53125,403.00000 C 501.15225,362.61700 500.96875,321.49999 500.96875,321.50000 C 500.96875,321.50000 501.64899,330.30500 507.50000,329.62500 C 512.35600,329.05500 512.11675,323.50000 511.96875,320.50000 C 515.74575,327.62500 518.33972,348.75774 527.96875,389.96875 C 529.01575,394.45375 530.33575,399.05099 532.21875,403.00000 C 535.35875,409.59000 540.06575,414.49999 547.71875,414.50000 C 552.34375,414.50000 558.96875,408.62499 558.96875,404.00000 C 558.96875,403.64100 558.96048,403.30500 558.93750,403.00000 C 558.46450,397.34800 553.66375,401.51174 547.96875,392.96875 C 541.14475,382.73475 542.46875,381.96874 537.46875,354.46875 C 531.15575,319.75075 541.12502,319.50000 529.62500,237.50000 C 530.37500,239.00000 532.00002,246.12500 537.12500,245.00000 C 541.92200,243.94500 540.52402,238.75000 540.50000,236.37500 C 543.00000,240.87500 544.65975,253.15274 546.46875,261.96875 C 548.86675,273.66075 558.71875,290.96874 567.96875,290.96875 C 574.59375,290.96875 580.46875,288.09374 580.46875,281.46875 C 580.46875,276.09375 574.09375,276.21874 569.96875,272.96875 C 561.59375,266.34375 558.46875,258.09376 558.46875,247.46875 C 558.46875,247.46875 558.96875,237.46876 556.96875,219.96875 C 554.88275,201.72675 547.46875,170.96876 543.46875,161.46875 C 537.46875,147.21875 521.96875,122.82475 521.96875,116.96875 C 521.96875,115.21875 523.71875,113.96875 525.46875,113.96875 C 533.59375,113.96875 535.59375,123.96875 543.71875,123.96875 C 551.59375,123.96875 557.46875,117.09375 557.46875,109.21875 C 557.46875,103.96875 556.21875,97.468749 550.96875,97.468750 C 549.34375,97.468750 548.59375,98.968749 546.96875,98.968750 C 536.71875,98.968750 531.21875,95.968749 521.46875,92.968750 C 511.96875,89.968750 504.09375,86.968451 500.96875,77.468750 C 512.71875,75.843750 520.96875,71.968751 526.46875,61.468750 C 530.09375,54.468750 531.09375,45.468751 538.96875,45.468750 C 551.59375,45.468750 552.84375,64.468751 565.46875,64.468750 C 577.46875,64.468750 580.46875,52.968751 580.46875,40.968750 C 580.46875,34.968750 576.46875,33.718751 574.96875,32.468750 C 570.21875,34.343750 571.00002,47.500000 566.50000,47.000000 C 556.55900,45.895000 551.50002,28.000000 539.50000,29.000000 C 519.83600,30.640900 517.00002,38.000000 515.00000,45.500000 C 508.42200,70.153000 503.09775,66.375650 494.96875,64.968750 C 468.96875,60.468750 477.23375,45.953650 447.96875,48.468750 C 436.34375,49.468750 434.31575,65.226750 435.96875,70.468750 C 441.71475,88.656350 447.51575,83.922747 446.46875,106.96875 C 446.23375,112.19175 447.14499,141.11376 438.00000,147.96875 C 426.00000,156.96475 413.25824,141.53525 400.78125,156.78125 C 395.09425,169.86725 401.50074,178.84674 406.21875,192.59375 C 408.11375,198.10875 408.43400,200.80850 395.75000,203.68750 C 383.14100,206.55550 393.89775,214.94100 394.09375,215.00000 C 411.71475,220.45700 423.08224,207.23400 415.40625,182.37500 C 412.46125,172.82800 417.03524,167.43700 436.40625,162.25000 C 450.41025,158.49600 450.94475,158.58675 451.96875,146.46875 C 453.34375,130.25775 456.53899,127.04300 460.12500,129.25000 C 460.23100,145.71900 467.93749,163.71875 476.18750,171.96875 C 471.68750,179.46875 470.18749,184.46875 470.68750,193.46875 C 461.18750,199.46875 457.31249,215.21875 457.68750,216.96875 C 457.68750,216.96875 431.18749,222.96875 427.18750,231.46875 C 418.18750,230.96875 398.81249,234.09375 396.18750,240.46875 C 392.01950,236.30075 372.35549,238.70300 359.56250,242.62500 C 359.27750,236.75800 359.69599,218.50376 363.50000,215.96875 C 366.50000,213.96875 361.49999,187.46876 366.50000,185.46875 C 368.57800,184.63675 367.59399,160.91076 371.50000,158.46875 C 375.50000,155.96875 372.06699,141.72676 371.50000,135.96875 C 370.96100,130.49275 370.37499,123.96875 371.00000,117.46875 C 371.75000,109.71875 369.24999,95.968749 377.00000,95.968750 C 383.25000,95.968750 384.24999,102.46875 390.50000,102.46875 C 389.50000,96.218750 386.12499,92.468749 381.50000,88.468750 C 379.84000,87.042750 379.86699,86.632251 380.00000,86.531250 C 379.66400,86.550250 378.42199,86.477001 374.50000,85.500000 C 365.65300,83.285000 366.99999,74.499997 353.00000,68.500000 C 359.00000,61.500000 363.99999,57.000000 363.00000,46.500000 C 358.62500,49.125000 351.62499,51.500000 346.50000,51.500000 C 340.12500,51.500000 337.49999,53.000000 337.50000,47.000000 C 339.62500,41.625000 345.99999,40.500000 344.00000,33.500000 C 344.00000,33.500000 330.12499,38.000000 328.62500,38.000000 C 322.12500,38.000000 325.99999,29.000000 314.00000,30.000000 C 307.77000,30.520000 306.12499,36.375000 300.00000,37.500000 C 294.25000,38.500000 289.49999,42.500000 283.00000,48.500000 C 268.31700,62.054900 246.50001,81.250401 233.75000,90.750000 C 235.62500,91.500000 246.00001,90.500001 253.00000,92.000000 C 263.73500,94.301000 304.99999,108.50000 305.00000,124.00000 C 305.00000,134.12500 308.87499,139.49999 303.50000,148.00000 C 299.62500,154.12500 288.99999,159.74999 289.00000,167.00000 C 296.50000,164.50000 298.83599,162.31999 298.00000,167.50000 C 295.50000,183.00000 281.12499,195.37499 270.00000,206.50000 C 266.00000,210.50000 262.99999,207.99999 258.00000,217.50000 C 266.00000,215.00000 272.99999,213.49999 271.00000,216.50000 C 267.67200,221.49200 254.65625,244.78124 254.65625,244.78125 C 243.82025,240.85125 212.39499,235.60599 207.50000,240.50000 C 204.87500,234.12500 185.49999,230.99999 176.50000,231.50000 C 173.08600,224.23800 153.82425,216.15575 145.90625,215.59375 C 145.21825,211.19475 141.22300,198.69200 133.00000,193.50000 C 133.50000,184.50000 132.00000,179.50000 127.50000,172.00000 C 135.75000,163.75000 140.32426,147.60951 143.40625,129.06250 C 148.09425,121.99150 151.91799,121.91799 154.00000,146.50000 C 155.02700,158.62100 162.99999,165.99999 177.50000,166.00000 C 197.55500,166.00000 196.37499,173.01999 196.00000,183.00000 C 195.02000,209.00000 213.39499,217.33199 229.00000,207.50000 C 229.17200,207.39100 237.42199,193.50399 224.50000,194.00000 C 211.50000,194.50000 216.99999,190.49999 220.00000,185.50000 C 233.89900,162.32800 222.87899,162.16399 214.00000,151.00000 C 198.00000,139.50000 180.49999,154.49999 168.50000,145.50000 C 159.35600,138.64100 159.73399,112.21900 159.50000,107.00000 C 158.45300,83.949000 164.25799,88.683597 170.00000,70.500000 C 171.65200,65.253900 169.62499,49.500000 158.00000,48.500000 C 128.72700,45.984900 137.00000,60.499997 111.00000,65.000000 C 102.86700,66.406000 93.500002,67.500000 94.500000,42.000000 C 94.684000,37.253900 95.980499,25.679900 70.500000,23.000000 z "
           id="path2253" />
        <path
           id="path2259"
           d="M 301.16760,113.89800 C 301.16760,113.89800 296.27660,118.59800 288.86260,119.01600 C 281.88260,119.41000 275.24960,119.87900 270.15160,119.87900 C 263.41760,119.87900 258.64460,123.59800 254.32360,128.80100 C 251.87060,131.75800 251.55460,133.83600 251.80860,138.22600 C 256.15160,132.49200 262.91760,126.21500 269.14760,125.75400 C 276.51160,125.19100 287.99160,125.81600 295.26960,124.49600 C 297.87060,124.03500 304.94460,121.40600 304.94460,119.43400 C 304.94460,117.88300 302.67960,114.33600 301.17160,113.89800"
           style="fill:#ff0000;fill-rule:evenodd;stroke:#000000;stroke-opacity:1.0000000" />
        <path
           id="path2263"
           d="M 268.99960,87.996000 C 271.12460,87.996000 277.29660,89.148000 279.24960,89.996000 C 286.74960,93.246000 283.81160,92.371000 285.99960,97.746000 L 285.99960,99.496000 C 271.49960,100.74600 268.24960,93.746000 268.24960,91.184000 C 268.24960,90.434000 268.99960,88.746000 268.99960,87.996000"
           style="fill:#000000;fill-rule:evenodd;stroke:#000000;stroke-opacity:1.0000000" />
        <path
           id="path2267"
           d="M 269.24960,88.137000 C 267.06960,87.273000 257.31160,77.750400 249.06160,77.750400 C 246.85160,78.766400 245.15960,79.875400 243.68760,81.594400 C 230.28460,88.219000 218.00360,103.53500 218.00360,115.99600 C 218.00360,135.49600 236.50360,139.99600 236.50360,139.99600 C 233.50360,135.74600 230.50360,129.24600 230.50360,123.99600 C 230.50360,117.99600 233.25360,113.99600 239.25360,113.99600 C 244.37860,113.99600 244.67960,114.64100 249.64460,115.91000 C 255.51960,117.41000 261.33560,116.57800 263.09760,115.66000 C 278.42960,107.62900 287.93360,109.88300 291.99560,111.50000 C 296.35160,113.22600 299.39760,116.64100 299.39760,120.39100 C 299.39760,130.01600 285.87060,132.37100 276.49560,133.99600 C 265.49560,135.87100 254.64460,142.18000 250.39460,152.55500 C 260.23360,147.28500 267.24560,141.99600 277.62060,141.99600 C 282.99560,141.99600 285.99560,141.99600 291.37060,141.99600 C 300.87060,141.99600 310.10460,141.26900 312.18360,131.99600 C 313.04660,128.13700 312.37860,125.48000 312.35160,121.73000 C 312.26960,111.01900 298.22660,108.83600 292.49160,102.43400 C 283.02260,91.855000 280.26560,105.28100 269.24960,88.141000"
           style="fill:#f9f010;fill-rule:evenodd;stroke:#000000;stroke-opacity:1.0000000" />
        <path
           id="path2271"
           d="M 52.914100,197.00400 C 55.976600,182.36300 59.937500,167.57400 62.496100,161.49600 C 64.136700,157.60100 66.488300,152.94100 69.039100,148.11300 C 71.039100,151.63300 73.140600,157.75400 76.992200,164.49600 C 122.61660,244.34400 182.74160,261.74600 240.42160,271.20700 C 240.42160,271.25000 240.53460,275.28500 240.48760,275.24200 C 205.23760,269.99200 139.48760,269.74200 74.988300,214.99200 C 67.082000,208.28100 58.632800,203.40200 52.906200,197.00400"
           style="fill:#f9f010;fill-rule:evenodd;stroke:#000000;stroke-opacity:1.0000000" />
        <path
           id="path2275"
           d="M 553.05860,197.00400 C 549.99560,182.36300 546.03460,167.57400 543.47660,161.49600 C 541.83560,157.60100 539.48360,152.94100 536.93360,148.11300 C 534.93360,151.63300 532.83160,157.75400 528.97960,164.49600 C 483.35460,244.34400 423.22960,261.74600 365.55460,271.20700 C 365.55460,271.25000 365.44060,275.28500 365.48760,275.24200 C 400.73760,269.99200 466.48760,269.74200 530.98760,214.99200 C 538.89460,208.28100 547.34360,203.40200 553.06960,197.00400"
           style="fill:#f9f010;fill-rule:evenodd;stroke:#000000;stroke-opacity:1.0000000" />
        <path
           id="path2279"
           d="M 247.56160,78.558400 C 246.31160,79.308400 244.50360,80.117300 244.50360,81.992300 C 244.50360,83.676000 246.28060,85.308000 247.81560,86.051000 C 249.04260,86.644000 253.76560,87.387000 254.50360,86.234000 C 256.06560,83.797000 251.12860,82.234000 250.00360,82.047000"
           style="fill:none;stroke:#000000;stroke-width:1.2500000;stroke-miterlimit:4.0000000;stroke-dasharray:none" />
        <path
           id="path2281"
           d="M 146.56560,214.88300 C 146.56160,214.87900 146.56160,214.86700 146.55860,214.85900 C 146.55860,214.85100 146.55860,214.84400 146.55860,214.83200 C 146.55860,214.82400 146.56160,214.81600 146.56160,214.81200 C 146.56560,214.80500 146.56960,214.79700 146.57760,214.78900 L 146.58160,214.78900 C 146.57760,214.79300 146.57360,214.80100 146.57360,214.80100 C 146.57360,214.80500 146.56960,214.80800 146.56960,214.81200 C 146.56960,214.81600 146.56560,214.82400 146.56560,214.83200 C 146.56560,214.84800 146.56560,214.86300 146.57360,214.88300 L 146.56960,214.88300"
           style="fill:#000000;fill-rule:evenodd;stroke:none" />
        <path
           id="path2283"
           d="M 146.64760,214.84400 L 146.65560,214.84800 C 146.65160,214.85500 146.64760,214.85900 146.64460,214.86300 C 146.64060,214.86700 146.63260,214.86700 146.62460,214.86700 C 146.61660,214.86700 146.61260,214.86300 146.60460,214.85900 C 146.60160,214.85500 146.59760,214.85100 146.59760,214.84400 C 146.59760,214.84000 146.59760,214.83200 146.59760,214.82400 C 146.59760,214.81600 146.60160,214.81200 146.60460,214.80500 C 146.60860,214.80100 146.61260,214.79700 146.61660,214.79300 C 146.62060,214.79300 146.62860,214.79300 146.63660,214.79300 C 146.64460,214.79300 146.64760,214.79700 146.65160,214.80100 C 146.65560,214.80500 146.65560,214.80800 146.65960,214.81600 L 146.65160,214.81600 C 146.65160,214.81200 146.65160,214.80800 146.64760,214.80500 C 146.64760,214.80500 146.64460,214.80100 146.63660,214.80100 C 146.63260,214.80100 146.62860,214.80100 146.62060,214.80100 C 146.61660,214.80100 146.61260,214.80500 146.61260,214.80800 C 146.61260,214.81200 146.60860,214.81600 146.60860,214.82000 C 146.60860,214.82400 146.60860,214.83200 146.60860,214.83600 C 146.60860,214.84000 146.61260,214.84400 146.61260,214.84800 C 146.61660,214.84800 146.62060,214.85100 146.62460,214.85100 C 146.62860,214.85100 146.63260,214.85100 146.64060,214.85100 C 146.64460,214.85100 146.64760,214.84800 146.64760,214.84000"
           style="fill:#000000;fill-rule:evenodd;stroke:none" />
        <path
           id="path2285"
           d="M 146.67160,214.89400 L 146.66760,214.89400 C 146.67960,214.88300 146.68760,214.86300 146.68760,214.84800 C 146.68760,214.84400 146.68760,214.83600 146.68760,214.82800 C 146.68760,214.82400 146.68760,214.82000 146.68760,214.81200 C 146.68760,214.81200 146.68760,214.80500 146.68360,214.79700 L 146.68760,214.79700 C 146.69060,214.80500 146.69460,214.81600 146.69460,214.82400 C 146.69460,214.83200 146.69460,214.84000 146.69460,214.84800 C 146.69460,214.85500 146.69060,214.86300 146.68760,214.87100 C 146.68360,214.87900 146.67960,214.88700 146.67160,214.89100"
           style="fill:#000000;fill-rule:evenodd;stroke:none" />
        <path
           id="path2287"
           d="M 146.78060,214.87900 L 146.78060,214.88700 L 146.72960,214.88300 C 146.72960,214.88300 146.72960,214.87900 146.72960,214.87900 C 146.72960,214.87900 146.73360,214.87500 146.73760,214.87100 C 146.74160,214.87100 146.74560,214.86700 146.74960,214.86300 C 146.75760,214.85900 146.76560,214.85500 146.76960,214.85100 C 146.77260,214.84800 146.77260,214.84800 146.77260,214.84400 C 146.77260,214.84000 146.77260,214.84000 146.77260,214.83600 C 146.77260,214.83600 146.76960,214.83200 146.76560,214.83200 C 146.76160,214.83200 146.75760,214.83200 146.75360,214.83200 C 146.75360,214.83200 146.74960,214.83600 146.74960,214.84000 L 146.74160,214.84000 C 146.74160,214.83600 146.74560,214.82800 146.74960,214.82400 C 146.75360,214.82400 146.75760,214.82000 146.76560,214.82400 C 146.76960,214.82400 146.77660,214.82800 146.78060,214.83200 C 146.78460,214.83600 146.78460,214.84000 146.78460,214.84800 C 146.78460,214.85100 146.78460,214.85100 146.78060,214.85500 C 146.78060,214.85500 146.77660,214.85900 146.77260,214.86300 C 146.77260,214.86300 146.76560,214.86700 146.75760,214.87500 C 146.75360,214.87900 146.74960,214.87900 146.74560,214.88300 C 146.74560,214.88300 146.74160,214.88300 146.74160,214.88700 L 146.77660,214.89100"
           style="fill:#000000;fill-rule:evenodd;stroke:none" />
        <path
           id="path2289"
           d="M 146.79660,214.85100 C 146.79660,214.84400 146.79660,214.83600 146.80060,214.83200 C 146.80060,214.82800 146.80460,214.82400 146.80860,214.82000 C 146.81160,214.82000 146.81560,214.81600 146.81960,214.82000 C 146.82360,214.82000 146.82760,214.82000 146.82760,214.82400 C 146.82760,214.82400 146.83160,214.82800 146.83160,214.83200 C 146.83160,214.83600 146.83160,214.83600 146.83160,214.84400 C 146.83160,214.84800 146.83160,214.85100 146.83160,214.85900 C 146.83160,214.86700 146.82760,214.87500 146.82760,214.87900 C 146.82760,214.88300 146.82360,214.88700 146.81960,214.89100 C 146.81560,214.89100 146.81160,214.89400 146.80860,214.89100 C 146.80060,214.89100 146.79660,214.88700 146.79260,214.88300 C 146.78860,214.87900 146.78860,214.86700 146.79260,214.85100 L 146.79660,214.85100 z M 146.80460,214.85100 C 146.80460,214.86300 146.80460,214.87100 146.80460,214.87500 C 146.80460,214.87900 146.80860,214.87900 146.81160,214.88300 C 146.81560,214.88300 146.81960,214.88300 146.82360,214.87900 C 146.82760,214.87500 146.82760,214.86700 146.83160,214.85500 C 146.83160,214.84400 146.83160,214.83600 146.83160,214.83200 C 146.83160,214.82800 146.82760,214.82800 146.82360,214.82400 C 146.81960,214.82400 146.81560,214.82400 146.81560,214.82800 C 146.81160,214.83200 146.81160,214.84000 146.80860,214.85100"
           style="fill:#000000;fill-rule:evenodd;stroke:none" />
        <path
           id="path2291"
           d="M 146.85460,214.85900 C 146.85460,214.85100 146.85460,214.84400 146.85860,214.84000 C 146.85860,214.83600 146.86260,214.83200 146.86660,214.82800 C 146.87060,214.82800 146.87460,214.82400 146.87860,214.82800 C 146.88260,214.82800 146.88660,214.82800 146.88660,214.83200 C 146.88660,214.83200 146.89060,214.83600 146.89060,214.84000 C 146.89060,214.84000 146.89060,214.84400 146.89460,214.85100 C 146.89460,214.85500 146.89460,214.85900 146.89460,214.86700 C 146.89460,214.87500 146.89460,214.88300 146.89060,214.88700 C 146.89060,214.89100 146.88660,214.89400 146.88260,214.89800 C 146.87860,214.89800 146.87460,214.89800 146.87060,214.89800 C 146.86660,214.89800 146.85860,214.89400 146.85460,214.89100 C 146.85160,214.88700 146.85160,214.87500 146.85460,214.85900 z M 146.86660,214.86300 C 146.86660,214.87500 146.86660,214.88300 146.86660,214.88700 C 146.86660,214.89100 146.87060,214.89100 146.87460,214.89400 C 146.87860,214.89400 146.88260,214.89400 146.88660,214.89100 C 146.89060,214.88700 146.89060,214.87900 146.89460,214.86700 C 146.89460,214.85500 146.89460,214.84800 146.89460,214.84400 C 146.89460,214.84000 146.89060,214.84000 146.88660,214.83600 C 146.88260,214.83600 146.87860,214.83600 146.87860,214.84000 C 146.87460,214.84400 146.87460,214.85100 146.87060,214.86300"
           style="fill:#000000;fill-rule:evenodd;stroke:none" />
        <path
           id="path2293"
           d="M 146.94860,214.91000 L 146.94060,214.91000 L 146.94860,214.85100 C 146.94860,214.85100 146.94460,214.85500 146.94060,214.85500 C 146.93760,214.85500 146.93360,214.85500 146.93360,214.85900 L 146.93360,214.85100 C 146.93760,214.85100 146.94060,214.84800 146.94860,214.84800 C 146.95260,214.84800 146.95660,214.84400 146.95660,214.84000 L 146.96060,214.84000 L 146.95260,214.91400"
           style="fill:#000000;fill-rule:evenodd;stroke:none" />
        <path
           id="path2295"
           d="M 146.99960,214.91800 L 147.03860,214.84800 L 147.04660,214.84800 L 147.06560,214.92600 L 147.05460,214.92600 L 147.05060,214.90200 L 147.01960,214.89800 L 147.00760,214.91800 L 146.99960,214.91800 z M 147.02260,214.89100 L 147.04660,214.89400 L 147.04260,214.87500 C 147.04260,214.87100 147.04260,214.86300 147.04260,214.85900 C 147.04260,214.86300 147.03860,214.86700 147.03860,214.87100 L 147.02660,214.89100"
           style="fill:#000000;fill-rule:evenodd;stroke:none" />
        <path
           id="path2297"
           d="M 147.07760,214.93000 L 147.07760,214.92200 L 147.08560,214.92200 L 147.08560,214.93000 L 147.07760,214.93000"
           style="fill:#000000;fill-rule:evenodd;stroke:none" />
        <path
           id="path2299"
           d="M 147.10860,214.93400 L 147.11660,214.85900 L 147.14760,214.86300 C 147.15160,214.86300 147.15960,214.86300 147.15960,214.86700 C 147.16360,214.86700 147.16360,214.87100 147.16760,214.87500 C 147.16760,214.87900 147.16760,214.88300 147.16760,214.88700 C 147.16760,214.89100 147.16760,214.89400 147.16360,214.89800 C 147.15960,214.89800 147.15560,214.90200 147.14760,214.90200 C 147.14760,214.90200 147.15160,214.90200 147.15160,214.90600 C 147.15160,214.90600 147.15560,214.91000 147.15560,214.91800 L 147.16360,214.93700 L 147.15160,214.93700 L 147.14460,214.92200 C 147.14460,214.91800 147.14060,214.91400 147.14060,214.91000 C 147.14060,214.91000 147.14060,214.90600 147.13660,214.90600 C 147.13660,214.90600 147.13660,214.90600 147.13260,214.90600 C 147.13260,214.90600 147.13260,214.90600 147.12860,214.90600 L 147.11660,214.90600 L 147.11260,214.93700 L 147.10460,214.93700 L 147.10860,214.93400 z M 147.12460,214.89400 L 147.14460,214.89400 C 147.14760,214.89400 147.15160,214.89400 147.15160,214.89400 C 147.15160,214.89400 147.15560,214.89400 147.15560,214.89100 C 147.15560,214.89100 147.15560,214.88700 147.15560,214.88700 C 147.15560,214.88300 147.15560,214.88300 147.15560,214.87900 C 147.15560,214.87900 147.15160,214.87500 147.14460,214.87500 L 147.12060,214.87100 L 147.11660,214.89400"
           style="fill:#000000;fill-rule:evenodd;stroke:none" />
        <path
           id="path2301"
           d="M 147.18760,214.94500 L 147.18760,214.93700 L 147.19460,214.93700 L 147.19460,214.94500 L 147.18760,214.94500"
           style="fill:#000000;fill-rule:evenodd;stroke:none" />
      </g>
      <path
         sodipodi:nodetypes="cccccc"
         style="fill:none;fill-opacity:1.0000000;fill-rule:evenodd;stroke:#000000;stroke-width:5.0000000;stroke-miterlimit:4.0000000;stroke-dasharray:none;stroke-opacity:1.0000000"
         d="M 2.5000000,322.50000 C 2.5000000,156.81300 2.5000000,2.5004030 2.5000000,2.5004030 L 602.49960,2.5004030 L 602.49960,322.50000 C 602.49960,488.18400 520.49960,674.50000 302.49959,752.50000 C 84.499600,674.50000 2.5000000,488.18700 2.5000000,322.50000 z "
         id="path2360" />
    </g>
  </g>
</svg>
